<svg width="33" height="32" viewBox="0 0 33 32" fill="none" xmlns="http://www.w3.org/2000/svg">
<path d="M3.04788 20.5735L0.495235 26.5739C-0.220976 28.2537 -0.355661 30.1695 1.43793 30.8368C1.86643 30.9979 2.30105 31.0727 2.73568 31.0727C4.11913 31.0727 5.43524 30.2903 5.98005 29.0074L6.49426 27.7992L10.4304 18.5542L14.3481 9.34372C15.2831 7.70652 15.8565 5.18712 19.5269 3.83237C16.6734 3.46642 10.9212 2.71338 10.8637 2.71338C10.8269 2.77091 10.4426 3.35487 10.4059 3.4124C10.3263 3.53897 10.2467 3.67129 10.1855 3.80936C10.1794 3.82086 10.1794 3.82662 10.1733 3.83237L3.054 20.562C3.054 20.562 3.04788 20.5678 3.04788 20.5735Z" fill="url(#paint0_radial_2_84)"/>
<path d="M28.5675 20.5733L31.1201 26.5736C31.8363 28.2535 31.971 30.1693 30.1774 30.8366C29.7489 30.9977 29.3143 31.0725 28.8797 31.0725C27.4962 31.0725 26.1801 30.2901 25.6353 29.0072L25.1211 27.799L21.185 18.554L17.2673 9.34351C16.3323 7.70631 14.7539 4.32206 10.5386 3.2281C11.0711 1.97971 12.8965 1.76685 14.3228 1.76685H18.1916H18.2222C18.3752 1.7726 18.5222 1.78986 18.6813 1.81287C18.7609 1.82438 18.8466 1.82438 18.9262 1.84163C19.0302 1.86465 19.1282 1.90492 19.2323 1.93368C19.3486 1.9682 19.4649 1.99121 19.5751 2.03724C19.624 2.06025 19.673 2.08901 19.722 2.11202C19.875 2.18106 20.0219 2.2501 20.1627 2.33639C20.2607 2.39392 20.3402 2.47446 20.4321 2.5435C20.5116 2.60678 20.6035 2.66431 20.6769 2.73334C20.7443 2.80238 20.8055 2.88292 20.8728 2.95771C20.9524 3.04976 21.0381 3.1303 21.1054 3.2281C21.1421 3.28563 21.1728 3.35467 21.2095 3.41219C21.2891 3.53876 21.3686 3.67108 21.4299 3.80915C21.436 3.82066 21.436 3.82641 21.4421 3.83216L28.5614 20.5618C28.5614 20.5618 28.5675 20.5675 28.5675 20.5733Z" fill="url(#paint1_radial_2_84)"/>
<defs>
<radialGradient id="paint0_radial_2_84" cx="0" cy="0" r="1" gradientUnits="userSpaceOnUse" gradientTransform="translate(12.1197 5.8554) rotate(112.412) scale(27.6399 18.8671)">
<stop stop-color="#142167"/>
<stop offset="1" stop-color="#263DB5"/>
</radialGradient>
<radialGradient id="paint1_radial_2_84" cx="0" cy="0" r="1" gradientUnits="userSpaceOnUse" gradientTransform="translate(29.5677 8.20504) rotate(132.41) scale(25.6557 89.7655)">
<stop stop-color="#4259D4"/>
<stop offset="1" stop-color="#6A81FC"/>
</radialGradient>
</defs>
</svg>
